<svg width="692" height="627" viewBox="0 0 692 627" fill="none" xmlns="http://www.w3.org/2000/svg">
<rect x="0.173584" y="319.779" width="586.149" height="366" rx="70" transform="rotate(-33 0.173584 319.779)" fill="url(#paint0_linear_1_17)"/>
<g filter="url(#filter0_d_1_17)">
<path d="M482 314.5C482 383.812 421.111 440 346 440C270.889 440 210 383.812 210 314.5C210 245.188 270.889 189 346 189C421.111 189 482 245.188 482 314.5ZM223.064 314.5C223.064 377.154 278.104 427.945 346 427.945C413.896 427.945 468.936 377.154 468.936 314.5C468.936 251.846 413.896 201.055 346 201.055C278.104 201.055 223.064 251.846 223.064 314.5Z" fill="#F7B02B"/>
</g>
<path d="M402 314C402 341.614 376.928 364 346 364C315.072 364 290 341.614 290 314C290 286.386 315.072 264 346 264C376.928 264 402 286.386 402 314ZM300.736 314C300.736 336.32 321.001 354.414 346 354.414C370.999 354.414 391.264 336.32 391.264 314C391.264 291.68 370.999 273.586 346 273.586C321.001 273.586 300.736 291.68 300.736 314Z" fill="#FCD842"/>
<defs>
<filter id="filter0_d_1_17" x="197.1" y="180.1" width="297.8" height="276.8" filterUnits="userSpaceOnUse" color-interpolation-filters="sRGB">
<feFlood flood-opacity="0" result="BackgroundImageFix"/>
<feColorMatrix in="SourceAlpha" type="matrix" values="0 0 0 0 0 0 0 0 0 0 0 0 0 0 0 0 0 0 127 0" result="hardAlpha"/>
<feOffset dy="4"/>
<feGaussianBlur stdDeviation="6.45"/>
<feComposite in2="hardAlpha" operator="out"/>
<feColorMatrix type="matrix" values="0 0 0 0 0 0 0 0 0 0 0 0 0 0 0 0 0 0 0.25 0"/>
<feBlend mode="normal" in2="BackgroundImageFix" result="effect1_dropShadow_1_17"/>
<feBlend mode="normal" in="SourceGraphic" in2="effect1_dropShadow_1_17" result="shape"/>
</filter>
<linearGradient id="paint0_linear_1_17" x1="6.86986" y1="488.445" x2="568.666" y2="495.869" gradientUnits="userSpaceOnUse">
<stop stop-color="#F07A0C"/>
<stop offset="0.368957" stop-color="#F7B02B"/>
<stop offset="1" stop-color="#FCD842"/>
</linearGradient>
</defs>
</svg>
